<?xml version="1.0"?>
<svg width="36" height="36" id="svgcontent"  xmlns="http://www.w3.org/2000/svg" viewBox="0 0 640 640">
  <title>silhouette-male-grey</title>
  <metadata id="metadata7">image/svg+xmlMan silhouetteMan silhouette people person head shoulders face</metadata>
  <g style="pointer-events:all">
    <title style="pointer-events:inherit">Layer 1</title>
    <g id="layer1" style="pointer-events:inherit">
      <path fill="#bfbfbf" id="path2396" d="M1.4285888671875,627.5624389648438 C1.4285888671875,616.3629150390625 19.08383560180664,520.115966796875 22.076414108276367,515.0014038085938 C23.142555236816406,513.1793212890625 25.790815353393555,501.3763122558594 27.961227416992188,488.7733459472656 C33.024681091308594,459.3726501464844 42.359954833984375,427.7839660644531 47.854881286621094,421.4562683105469 C50.21708679199219,418.73553466796875 71.41474151611328,412.2699279785156 94.96057891845703,407.0869140625 C167.29441833496094,391.16497802734375 199.1739044189453,378.9004821777344 214.9136199951172,360.94097900390625 C222.41522216796875,352.3812255859375 233.7617645263672,343.4598388671875 240.1277313232422,341.1154479980469 C250.24095153808594,337.3916015625 251.70108032226562,335.0220947265625 251.70108032226562,322.33502197265625 C251.70108032226562,314.350341796875 249.3910369873047,304.3144836425781 246.5663299560547,300.0346984863281 C243.74258422851562,295.7536315917969 240.189453125,284.2618408203125 238.67056274414062,274.4964294433594 C237.15167236328125,264.7306213378906 232.73854064941406,253.5647735595703 228.86387634277344,249.68235778808594 C224.98802185058594,245.801025390625 221.81802368164062,240.84600830078125 221.81802368164062,238.67315673828125 C221.81802368164062,236.49884033203125 218.0359344482422,229.31744384765625 213.4136962890625,222.71328735351562 C206.24452209472656,212.47146606445312 204.93971252441406,205.3898468017578 204.54058837890625,174.54019165039062 C203.76927185058594,114.93757629394531 208.6063995361328,87.66475677490234 224.40785217285156,62.5185432434082 C246.71949768066406,27.01287269592285 289.8072509765625,2.421705961227417 329.904052734375,2.308074474334717 C345.57208251953125,2.264007568359375 352.1551513671875,4.182641983032227 358.7340393066406,10.711393356323242 C363.7025451660156,15.64091682434082 375.37841796875,20.527463912963867 386.71392822265625,22.419509887695312 C409.267578125,26.185394287109375 429.5517578125,41.31377410888672 439.400390625,61.71547317504883 C444.3511047363281,71.97187805175781 445.9325866699219,84.97000122070312 445.9375305175781,115.45365142822266 C445.94049072265625,137.99688720703125 447.58367919921875,156.7345428466797 449.6778259277344,158.1010284423828 C459.8359375,164.7328643798828 450.35968017578125,210.54737854003906 434.4249267578125,231.85012817382812 C428.4331359863281,239.86009216308594 423.4934997558594,249.62551879882812 423.4486083984375,253.5513153076172 C423.4028625488281,257.4756164550781 420.04168701171875,268.4272766113281 415.9778747558594,277.8868103027344 C402.48052978515625,309.3039245605469 407.1257019042969,340.3985290527344 426.35400390625,347.3581237792969 C429.9370422363281,348.6553955078125 438.75250244140625,357.7071838378906 445.94244384765625,367.47265625 C453.1335754394531,377.2393493652344 463.21905517578125,386.2332763671875 468.35577392578125,387.46002197265625 C473.4915466308594,388.68597412109375 496.5258483886719,397.50537109375 519.5411376953125,407.0596008300781 C542.5576782226562,416.6129150390625 562.5103759765625,424.4292907714844 563.8820190429688,424.4292907714844 C565.2525634765625,424.4292907714844 573.6568603515625,429.3114929199219 582.555908203125,435.2796936035156 C598.4608154296875,445.9442138671875 606.5656127929688,460.17987060546875 606.5656127929688,477.44873046875 C606.5656127929688,482.0912170410156 610.0421142578125,492.92401123046875 614.2901611328125,501.5205078125 C621.1268310546875,515.3544921875 625.780029296875,541.8841552734375 635.198486328125,620.7216186523438 L637.2009887695312,637.4910278320312 L319.31494140625,637.4910278320312 L1.4285888671875,637.4910278320312 L1.4285888671875,627.5624389648438 L1.4285888671875,627.5624389648438 z" style="pointer-events:inherit"></path>
    </g>
  </g>
</svg>