<?xml version="1.0"?>
<svg width="640" height="640" id="svgcontent" xmlns="http://www.w3.org/2000/svg" viewBox="0 0 640 640">
  <metadata id="metadata7">image/svg+xmlFemale silhouettefemale silhouette head face shoulders</metadata>
  <g style="pointer-events:all">
    <title style="pointer-events:inherit">Layer 1</title>
    <g id="layer1" style="pointer-events:inherit">
      <path fill="#bfbfbf" id="path2641" d="M0.857147216796875,613.6455688476562 C0.857147216796875,584.4295043945312 11.516895294189453,535.833740234375 21.23406982421875,520.7514038085938 C37.82421112060547,495.0011291503906 81.34162139892578,460.1899108886719 116.83414459228516,444.2770690917969 C136.570068359375,435.42864990234375 152.71762084960938,426.3522644042969 152.71762084960938,424.1071472167969 C152.71762084960938,421.8621826171875 149.14242553710938,416.6357421875 144.77272033691406,412.49285888671875 C139.57859802246094,407.56817626953125 135.03793334960938,393.209716796875 131.65805053710938,371.0218811035156 C127.27375793457031,342.23980712890625 127.49654388427734,334.3104248046875 133.1245880126953,318.83050537109375 C137.9033966064453,305.686279296875 138.6585235595703,296.7034606933594 135.82254028320312,286.736083984375 C133.6565399169922,279.1232604980469 133.0034942626953,271.80859375 134.37130737304688,270.4810791015625 C135.7391815185547,269.1537170410156 137.48443603515625,250.3827362060547 138.2497100830078,228.76788330078125 C140.04541015625,178.04859924316406 164.17581176757812,107.29867553710938 191.7799072265625,71.81835174560547 C210.1893768310547,48.1560173034668 253.2759246826172,18.10057830810547 283.1918029785156,8.052886962890625 C301.8811340332031,1.775810718536377 324.7569885253906,1.273773193359375 328.4418640136719,7.059606075286865 C329.916748046875,9.375378608703613 340.4024353027344,11.270194053649902 351.74359130859375,11.270194053649902 C366.1516418457031,11.270194053649902 374.89764404296875,13.678742408752441 380.7748718261719,19.265275955200195 C399.9659729003906,37.50708770751953 439.0830993652344,87.8755874633789 439.0830993652344,94.34489440917969 C439.0830993652344,95.82968139648438 442.74188232421875,100.95619201660156 447.2138366699219,105.73705291748047 C459.2294006347656,118.58289337158203 478.1329040527344,153.51376342773438 478.1329040527344,162.8711700439453 C478.1329040527344,167.3492889404297 482.0931091308594,178.38641357421875 486.93328857421875,187.3980255126953 C494.1515808105469,200.83702087402344 494.8896484375,205.93719482421875 491.03912353515625,215.76553344726562 C488.4570617675781,222.35601806640625 486.8086853027344,232.56781005859375 487.3761901855469,238.45835876464844 C487.943603515625,244.34890747070312 483.94354248046875,257.5261535644531 478.48724365234375,267.7408752441406 C469.652587890625,284.27996826171875 468.9026184082031,289.7943115234375 471.63641357421875,318.10552978515625 C473.3249206542969,335.5912780761719 476.4469299316406,354.3404846191406 478.5743713378906,359.7705383300781 C482.5394592285156,369.891357421875 473.6943664550781,393.14019775390625 463.447265625,399.53070068359375 C457.2294616699219,403.40850830078125 470.84393310546875,413.5563049316406 491.1495361328125,420.17938232421875 C499.5018005371094,422.9036865234375 510.9919738769531,428.6464538574219 516.6831665039062,432.94146728515625 C522.374267578125,437.2362365722656 529.3128662109375,440.7502136230469 532.1019897460938,440.7502136230469 C534.8912353515625,440.7502136230469 547.29736328125,445.6460876464844 559.6712036132812,451.62994384765625 C587.973876953125,465.3167724609375 614.3983764648438,494.0066833496094 620.38720703125,517.5512084960938 C628.4315795898438,549.177490234375 633.9645385742188,581.0593872070312 636.4707641601562,610.2264404296875 L638.912841796875,638.6478881835938 L319.8849792480469,638.6478881835938 L0.857147216796875,638.6478881835938 L0.857147216796875,613.6455688476562 z" style="pointer-events:inherit"></path>
    </g>
  </g>
</svg>